<?xml version="1.0" encoding="UTF-8" standalone="no"?>
<svg
   version="1.0"
   width="1200"
   height="400"
   id="svg2"
   inkscape:version="1.2 (dc2aedaf03, 2022-05-15)"
   sodipodi:docname="Hilbert_curve.svg"
   xmlns:inkscape="http://www.inkscape.org/namespaces/inkscape"
   xmlns:sodipodi="http://sodipodi.sourceforge.net/DTD/sodipodi-0.dtd"
   xmlns:xlink="http://www.w3.org/1999/xlink"
   xmlns="http://www.w3.org/2000/svg"
   xmlns:svg="http://www.w3.org/2000/svg"
   xmlns:rdf="http://www.w3.org/1999/02/22-rdf-syntax-ns#"
   xmlns:cc="http://creativecommons.org/ns#"
   xmlns:dc="http://purl.org/dc/elements/1.1/">
  <metadata
     id="metadata14">
    <rdf:RDF>
      <cc:Work
         rdf:about="">
        <dc:format>image/svg+xml</dc:format>
        <dc:type
           rdf:resource="http://purl.org/dc/dcmitype/StillImage" />
      </cc:Work>
    </rdf:RDF>
  </metadata>
  <defs
     id="defs12">
    <linearGradient
       inkscape:collect="always"
       id="linearGradient42144">
      <stop
         style="stop-color:#22c55e;stop-opacity:0.52050704;"
         offset="0"
         id="stop42140" />
      <stop
         style="stop-color:#06b6d4;stop-opacity:0;"
         offset="1"
         id="stop42142" />
    </linearGradient>
    <marker
       inkscape:stockid="Arrow1Mend"
       orient="auto"
       refY="0"
       refX="0"
       id="marker4450"
       style="overflow:visible"
       inkscape:isstock="true">
      <path
         id="path4452"
         d="M 0,0 5,-5 -12.5,0 5,5 Z"
         style="fill:#000000;fill-opacity:1;fill-rule:evenodd;stroke:#000000;stroke-width:1pt;stroke-opacity:1"
         transform="matrix(-0.4,0,0,-0.4,-4,0)"
         inkscape:connector-curvature="0" />
    </marker>
    <marker
       inkscape:stockid="Arrow1Mend"
       orient="auto"
       refY="0"
       refX="0"
       id="marker4422"
       style="overflow:visible"
       inkscape:isstock="true">
      <path
         id="path4424"
         d="M 0,0 5,-5 -12.5,0 5,5 Z"
         style="fill:#0000ff;fill-opacity:1;fill-rule:evenodd;stroke:#0000ff;stroke-width:1pt;stroke-opacity:1"
         transform="matrix(-0.4,0,0,-0.4,-4,0)"
         inkscape:connector-curvature="0" />
    </marker>
    <marker
       inkscape:stockid="Arrow1Mend"
       orient="auto"
       refY="0"
       refX="0"
       id="Arrow1Mend"
       style="overflow:visible"
       inkscape:isstock="true">
      <path
         id="path4155"
         d="M 0,0 5,-5 -12.5,0 5,5 Z"
         style="fill:#ff0000;fill-opacity:1;fill-rule:evenodd;stroke:#ff0000;stroke-width:1pt;stroke-opacity:1"
         transform="matrix(-0.4,0,0,-0.4,-4,0)"
         inkscape:connector-curvature="0" />
    </marker>
    <marker
       inkscape:stockid="Arrow1Mend"
       orient="auto"
       refY="0"
       refX="0"
       id="Arrow1Mend-2"
       style="overflow:visible"
       inkscape:isstock="true">
      <path
         inkscape:connector-curvature="0"
         id="path4155-7"
         d="M 0,0 5,-5 -12.5,0 5,5 Z"
         style="fill:#ff0000;fill-opacity:1;fill-rule:evenodd;stroke:#ff0000;stroke-width:1pt;stroke-opacity:1"
         transform="matrix(-0.4,0,0,-0.4,-4,0)" />
    </marker>
    <marker
       inkscape:stockid="Arrow1Mend"
       orient="auto"
       refY="0"
       refX="0"
       id="marker4422-7"
       style="overflow:visible"
       inkscape:isstock="true">
      <path
         inkscape:connector-curvature="0"
         id="path4424-4"
         d="M 0,0 5,-5 -12.5,0 5,5 Z"
         style="fill:#800080;fill-opacity:1;fill-rule:evenodd;stroke:#800080;stroke-width:1pt;stroke-opacity:1"
         transform="matrix(-0.4,0,0,-0.4,-4,0)" />
    </marker>
    <marker
       inkscape:stockid="Arrow1Mend"
       orient="auto"
       refY="0"
       refX="0"
       id="marker4450-8"
       style="overflow:visible"
       inkscape:isstock="true">
      <path
         inkscape:connector-curvature="0"
         id="path4452-9"
         d="M 0,0 5,-5 -12.5,0 5,5 Z"
         style="fill:#0000ff;fill-opacity:1;fill-rule:evenodd;stroke:#0000ff;stroke-width:1pt;stroke-opacity:1"
         transform="matrix(-0.4,0,0,-0.4,-4,0)" />
    </marker>
    <marker
       inkscape:stockid="Arrow1Mend"
       orient="auto"
       refY="0"
       refX="0"
       id="marker4450-8-9"
       style="overflow:visible"
       inkscape:isstock="true">
      <path
         inkscape:connector-curvature="0"
         id="path4452-9-9"
         d="M 0,0 5,-5 -12.5,0 5,5 Z"
         style="fill:#0000ff;fill-opacity:1;fill-rule:evenodd;stroke:#0000ff;stroke-width:1pt;stroke-opacity:1"
         transform="matrix(-0.4,0,0,-0.4,-4,0)" />
    </marker>
    <marker
       inkscape:stockid="Arrow1Mend"
       orient="auto"
       refY="0"
       refX="0"
       id="marker4422-7-3"
       style="overflow:visible"
       inkscape:isstock="true">
      <path
         inkscape:connector-curvature="0"
         id="path4424-4-3"
         d="M 0,0 5,-5 -12.5,0 5,5 Z"
         style="fill:#800080;fill-opacity:1;fill-rule:evenodd;stroke:#800080;stroke-width:1pt;stroke-opacity:1"
         transform="matrix(-0.4,0,0,-0.4,-4,0)" />
    </marker>
    <filter
       id="mask-powermask-path-effect41632_inverse"
       inkscape:label="filtermask-powermask-path-effect41632"
       style="color-interpolation-filters:sRGB"
       height="100"
       width="100"
       x="-50"
       y="-50">
      <feColorMatrix
         id="mask-powermask-path-effect41632_primitive1"
         values="1"
         type="saturate"
         result="fbSourceGraphic" />
      <feColorMatrix
         id="mask-powermask-path-effect41632_primitive2"
         values="-1 0 0 0 1 0 -1 0 0 1 0 0 -1 0 1 0 0 0 1 0 "
         in="fbSourceGraphic" />
    </filter>
    <mask
       maskUnits="userSpaceOnUse"
       id="mask41830">
      <path
         inkscape:connector-curvature="0"
         id="path41832"
         d="m 1432.819,626.59509 -19.6482,6.38413 -6.3842,-19.64826 19.6483,-6.38413 -12.7683,-39.29654 -19.6482,6.3841 6.3841,19.64829 -19.6483,6.3841 -6.3841,-19.64827 -19.6482,6.38413 12.7681,39.29653 19.6484,-6.38413 6.384,19.64831 -39.2965,12.76821 -6.3841,-19.64827 -19.6483,6.3841 6.3842,19.64826 -39.2966,12.76824 -6.3842,-19.64829 19.6484,-6.3841 -6.3841,-19.64826 -19.6484,6.3841 -6.384,-19.64828 39.2965,-12.76821 6.3841,19.64826 19.6483,-6.38411 -19.1523,-58.9448 -19.6484,6.3841 6.3841,19.64826 -39.2964,12.76824 -6.3842,-19.64829 19.6483,-6.3841 -6.3842,-19.64827 -19.6482,6.3841 -6.3841,-19.64827 39.2966,-12.76821 6.3841,19.64826 19.6482,-6.38411 -6.3841,-19.64828 39.2966,-12.76821 6.384,19.64826 -19.6482,6.38413 12.7682,39.29653 19.6483,-6.38409 -6.3841,-19.6483 19.6482,-6.38409 6.3841,19.64827 19.6484,-6.3841 -12.7683,-39.29656 -19.6482,6.38411 -6.3841,-19.64829 19.6482,-6.38409 -12.7683,-39.29656 -19.6482,6.38413 6.3841,19.64826 -39.2966,12.76821 -6.384,-19.64826 19.6482,-6.3841 -6.3841,-19.64829 -19.6482,6.38412 -6.3842,-19.64827 39.2965,-12.76821 6.3843,19.64826 19.6482,-6.38411 -12.7682,-39.29654 -19.6483,6.3841 -6.3841,-19.64827 19.6482,-6.3841 -12.7681,-39.29656 -19.6484,6.38412 6.3841,19.64827 -19.6482,6.38412 -6.3841,-19.64829 -19.6483,6.38411 12.7683,39.29654 19.6482,-6.3841 6.3842,19.64828 -58.9449,19.15234 -6.3841,-19.64828 19.6482,-6.38411 -12.7681,-39.29654 -19.6484,6.3841 6.3841,19.64826 -19.6482,6.38413 -6.3841,-19.64827 -19.6483,6.38409 12.7682,39.29656 19.6483,-6.38412 6.3842,19.64826 -19.6484,6.38413 12.7683,39.29654 19.6482,-6.3841 -6.3841,-19.64826 39.2966,-12.76825 6.3841,19.64829 -19.6483,6.38409 6.3841,19.64828 19.6484,-6.3841 6.384,19.64827 -39.2965,12.76821 -6.3841,-19.64827 -19.6483,6.38413 6.384,19.64826 -19.6482,6.3841 -6.384,-19.64826 -19.6484,6.38411 6.3841,19.64828 -39.2964,12.76821 -6.3842,-19.64827 19.6483,-6.38412 -6.3842,-19.64827 -19.6482,6.38413 -6.3841,-19.64828 39.2966,-12.76823 6.384,19.64829 19.6482,-6.38413 -12.7681,-39.29653 -19.6483,6.3841 -6.3841,-19.64828 19.6482,-6.38411 -12.7681,-39.29654 -19.6484,6.38413 6.3842,19.64826 -19.6483,6.3841 -6.3841,-19.64826 -19.6483,6.38411 12.7682,39.29654 19.6484,-6.3841 6.3841,19.64826 -58.9449,19.15234 -6.3841,-19.64829 19.6483,-6.3841 -12.7683,-39.29655 -19.6482,6.38412 6.3841,19.64827 -19.6483,6.38412 -6.3841,-19.64828 -19.6483,6.3841 12.7683,39.29657 19.6482,-6.38413 6.3841,19.64827 -19.6482,6.38412 12.7682,39.29653 19.6483,-6.38408 -6.3842,-19.64829 39.2966,-12.76823 6.3841,19.64826 -19.6483,6.38413 6.3841,19.64826 19.6483,-6.38408 6.3841,19.64826 -39.2965,12.76821 -6.3841,-19.64826 -19.6483,6.3841 12.7682,39.29655 19.6483,-6.38411 6.3841,19.64826 -19.6483,6.38413 12.7682,39.29653 19.6483,-6.3841 -6.3841,-19.64827 19.6482,-6.38412 6.3842,19.64828 19.6482,-6.3841 -12.7681,-39.29657 -19.6483,6.38413 -6.3841,-19.64827 39.2965,-12.76825 6.3841,19.6483 19.6484,-6.38412 -6.3843,-19.64826 39.2966,-12.76823 6.3842,19.64827 -19.6483,6.38409 6.384,19.64829 19.6484,-6.38411 6.384,19.64827 -39.2965,12.76821 -6.3841,-19.64827 -19.6482,6.38413 19.1522,58.9448 19.6484,-6.3841 -6.3842,-19.64826 39.2965,-12.76825 6.3842,19.64829 -19.6483,6.3841 6.3841,19.64829 19.6483,-6.38411 6.3841,19.64826 -39.2966,12.76821 -6.3841,-19.64826 -19.6482,6.38412 6.3841,19.64827 -39.2965,12.76822 -6.3841,-19.64828 19.6482,-6.38411 -12.7682,-39.29654 -19.6483,6.3841 6.3841,19.64829 -19.6482,6.3841 -6.3842,-19.64827 -19.6482,6.38412 12.7682,39.29654 19.6482,-6.38413 6.3842,19.64829 -39.2966,12.76823 -6.3841,-19.64827 -19.6483,6.38409 6.3841,19.64827 -39.2965,12.76824 -6.3841,-19.64829 19.6483,-6.3841 -6.3841,-19.64826 -19.6483,6.38408 -6.3841,-19.64826 39.2965,-12.76821 6.3841,19.64826 19.6483,-6.38412 -12.7682,-39.29653 -19.6483,6.38411 -6.3841,-19.64829 19.6483,-6.3841 -12.7683,-39.29655 -19.6482,6.38413 6.3841,19.64826 -19.6483,6.38413 -6.3841,-19.64828 -19.6483,6.3841 12.7683,39.29656 19.6482,-6.38412 6.3841,19.64826 -58.94479,19.15234 -6.38412,-19.64827 19.64831,-6.38412 -12.76826,-39.29653 -19.64826,6.3841 6.38411,19.64829 -19.64826,6.3841 -6.38413,-19.64828 -19.64826,6.38413 12.76822,39.29654 19.64826,-6.38413 6.38413,19.64829 -19.64828,6.3841 12.76823,39.29656 19.64826,-6.38412 -6.38413,-19.64827 39.29657,-12.76821 6.3841,19.64826 -19.6483,6.3841 6.3841,19.64829 19.6483,-6.38413 6.3841,19.64828 -39.2965,12.76821 -6.38411,-19.64826 -19.6483,6.38412 6.38412,19.64827 -39.29653,12.76821 -6.38413,-19.64827 19.64827,-6.38412 -12.76821,-39.29653 -19.64827,6.38413 6.38409,19.64826 -19.64827,6.3841 -6.38409,-19.64828 -19.64829,6.38413 12.76823,39.29654 19.64828,-6.3841 6.38409,19.64826 -39.29653,12.76823 -6.38413,-19.64828 -19.64826,6.3841 6.38412,19.64829 -39.29656,12.76822 -6.3841,-19.64827 19.64828,-6.38412 -6.38413,-19.64827 -19.64826,6.38409 -6.3841,-19.64826 39.29653,-12.76822 6.38412,19.64827 19.64826,-6.38409 -19.15233,-58.94484 -19.64827,6.38413 6.3841,19.64826 -39.29654,12.76823 -6.38411,-19.64828 19.64829,-6.38411 -6.38412,-19.64828 -19.64827,6.38413 -6.38412,-19.64829 39.29656,-12.76823 6.38409,19.64828 19.64828,-6.3841 -6.3841,-19.64826 39.29652,-12.76825 6.38413,19.64829 -19.64826,6.3841 12.76821,39.29656 19.64827,-6.38412 -6.38412,-19.64827 19.64829,-6.38412 6.3841,19.64826 19.64826,-6.38408 -12.76821,-39.29657 -19.64828,6.38413 -6.38411,-19.64828 19.64829,-6.38411 -6.38412,-19.64827 -19.64827,6.38411 -6.38412,-19.64829 19.64826,-6.38409 -12.76821,-39.29656 -19.64826,6.38411 6.38411,19.64828 -19.64829,6.38411 -6.3841,-19.64826 -19.64826,6.3841 12.76822,39.29655 19.64826,-6.38411 6.38413,19.64826 -39.29657,12.76821 -6.3841,-19.64826 -19.64829,6.38413 6.38413,19.64826 -39.29654,12.76822 -6.38411,-19.64827 19.64826,-6.38412 -6.3841,-19.64827 -19.64829,6.38412 -6.3841,-19.64829 39.29654,-12.76822 6.38411,19.6483 19.64828,-6.38412 -19.15233,-58.94483 -19.64828,6.38412 6.38412,19.64826 -39.29656,12.76823 -6.38409,-19.64828 19.64827,-6.38411 -6.38413,-19.64828 -19.64826,6.38413 -6.38413,-19.64827 39.29657,-12.76825 6.3841,19.64831 19.64829,-6.38413 -6.38413,-19.64826 39.29654,-12.76823 6.38411,19.64827 -19.64826,6.3841 12.76821,39.29656 19.64828,-6.38412 -6.3841,-19.64827 19.64826,-6.38412 6.3841,19.64829 19.64829,-6.38413 -12.76823,-39.29652 -19.64827,6.3841 -6.3841,-19.64828 39.29653,-12.76821 6.38413,19.64826 19.64826,-6.38411 -6.38411,-19.64828 39.29655,-12.76821 6.3841,19.64827 -19.64826,6.38412 6.38411,19.64826 19.64828,-6.38409 6.38408,19.64827 -39.29653,12.76821 -6.38412,-19.64826 -19.64827,6.3841 12.76821,39.29655 19.6483,-6.38412 6.38409,19.64827 -19.64826,6.38412 12.76821,39.29654 19.64828,-6.3841 -6.3841,-19.64826 19.64826,-6.38413 6.38413,19.64826 19.64826,-6.38408 -12.76821,-39.29657 -19.64829,6.38413 -6.3841,-19.64827 58.94486,-19.15235 6.3841,19.64828 -19.6483,6.38411 12.7682,39.29654 19.6483,-6.38412 -6.3841,-19.64827 19.6482,-6.38409 6.3842,19.64826 19.6482,-6.38411 -12.7682,-39.29654 -19.6483,6.38409 -6.3841,-19.64826 19.6483,-6.3841 -12.7682,-39.29657 -19.6483,6.38413 6.3841,19.64826 -39.29652,12.76823 -6.38412,-19.64827 19.64826,-6.38412 -6.3841,-19.64826 -19.64826,6.38411 -6.38412,-19.64829 39.29656,-12.76821 6.3841,19.64829 19.6483,-6.38413 -19.1524,-58.94483 -19.64825,6.38413 6.38413,19.64826 -39.29656,12.76822 -6.3841,-19.64826 19.64827,-6.38413 -6.38411,-19.64826 -19.64828,6.38411 -6.3841,-19.64826 39.29654,-12.76824 6.38413,19.64829 19.64823,-6.38412 -12.76818,-39.29653 -19.6483,6.38408 -6.38409,-19.64826 19.64826,-6.38412 -12.76822,-39.29653 -19.64826,6.38411 6.3841,19.64828 -19.64827,6.3841 -6.38412,-19.64828 -19.64827,6.38412 12.76821,39.29654 19.64829,-6.38409 6.3841,19.64826 -58.9448,19.15234 -6.38411,-19.64829 19.64826,-6.3841 -12.76822,-39.29656 -19.64827,6.38411 6.3841,19.64828 -19.64826,6.38411 -6.3841,-19.64826 -19.64829,6.3841 12.76821,39.29655 19.64829,-6.38411 6.3841,19.64826 -19.64827,6.38413 12.76821,39.29653 19.64827,-6.3841 -6.38409,-19.64829 39.29653,-12.76821 6.38413,19.64826 -19.64827,6.38413 6.38409,19.64826 19.6483,-6.3841 6.38409,19.64828 -39.29653,12.76821 -6.38413,-19.64826 -19.64826,6.38408 6.3841,19.6483 -39.29654,12.76822 -6.38413,-19.64827 19.64831,-6.38412 -12.76825,-39.29653 -19.64827,6.38408 6.38413,19.64828 -19.64828,6.38411 -6.38411,-19.64826 -19.64828,6.3841 12.76823,39.29655 19.64826,-6.38411 6.38412,19.64826 -39.29656,12.76824 -6.38409,-19.64829 -19.64828,6.38413 6.3841,19.64826 -39.29652,12.76822 -6.38413,-19.64827 19.64826,-6.3841 -6.38409,-19.64829 -19.64827,6.38412 -6.38412,-19.64826 39.29654,-12.76822 6.38412,19.64827 19.64827,-6.38412 -19.15234,-58.94481 -19.64828,6.3841 6.38413,19.64826 -39.29656,12.76824 -6.38409,-19.64829 19.64826,-6.3841 -6.38413,-19.64826 -19.64826,6.3841 -6.3841,-19.64827 39.29654,-12.76822 6.38413,19.64826 19.64826,-6.38411 -6.38412,-19.64826 39.29656,-12.76823 6.3841,19.64827 -19.64827,6.38412 12.76822,39.29654 19.64826,-6.38409 -6.3841,-19.64829 19.64827,-6.3841 6.38412,19.64826 19.64827,-6.38413 -12.76821,-39.29652 -19.64829,6.38412 -6.3841,-19.6483 19.64826,-6.38409 -6.38411,-19.64827 -19.64828,6.3841 -6.38408,-19.64827 19.64826,-6.38412 -12.76822,-39.29653 -19.64829,6.38411 6.38412,19.64828 -19.64826,6.38408 -6.38413,-19.64826 -19.64826,6.38413 12.76821,39.29652 19.64826,-6.3841 6.38413,19.64828 -39.29654,12.76821 -6.38411,-19.64826 -19.64827,6.3841 6.38409,19.64829 -39.29653,12.76821 -6.38413,-19.64829 19.6483,-6.3841 -6.38412,-19.64827 -19.64827,6.3841 -6.38412,-19.64826 39.29656,-12.76822 6.3841,19.64826 19.64826,-6.38409 -19.15231,-58.94483 -19.64829,6.3841 6.38411,19.64829 -39.29652,12.76821 -6.38413,-19.64826 19.64826,-6.38413 -6.38408,-19.64826 -19.64831,6.3841 -6.38408,-19.64827 39.29653,-12.76822 6.38412,19.64826 19.64827,-6.38408 -6.38413,-19.6483 39.29657,-12.76822 6.3841,19.64827 -19.64828,6.38412 12.76822,39.29654 19.64829,-6.38409 -6.38412,-19.64828 19.64828,-6.38411 6.38411,19.64826 19.64827,-6.3841 -12.76822,-39.29655 -19.64826,6.38411 -6.38413,-19.64826 39.29657,-12.76824 6.38408,19.64829 19.64828,-6.38413 -6.3841,-19.64826 39.29654,-12.76821 6.38412,19.64826 -19.64827,6.3841 6.3841,19.64829 19.64826,-6.38412 6.38413,19.64826 -39.29654,12.76825 -6.38413,-19.64829 -19.64826,6.38411 12.76822,39.29654 19.64827,-6.38409 6.38412,19.64826 -19.64827,6.38412 12.76822,39.29655 19.64826,-6.38413 -6.38412,-19.64826 19.6483,-6.3841 6.38409,19.64826 19.64827,-6.38412 -12.76822,-39.29653 -19.64826,6.3841 -6.38413,-19.64828 58.94483,-19.15234 6.38413,19.64829 -19.64831,6.3841 12.76825,39.29657 19.64827,-6.38412 -6.38413,-19.64827 19.64828,-6.38412 6.38411,19.64826 19.64828,-6.38409 -12.76823,-39.29656 -19.64826,6.38412 -6.38412,-19.64827 19.64827,-6.38412 -12.76822,-39.29654 -19.64826,6.3841 6.38411,19.64829 -39.29656,12.76823 -6.3841,-19.64828 19.64827,-6.38411 -6.38411,-19.64828 -19.64827,6.3841 -6.38412,-19.64827 39.29655,-12.76822 6.3841,19.64828 19.64829,-6.3841 -6.38411,-19.64829 39.29653,-12.76823 6.38412,19.64828 -19.64826,6.38411 12.76821,39.29654 19.64826,-6.38409 -6.38408,-19.64827 19.64826,-6.38412 6.3841,19.64826 19.64827,-6.38408 -12.7682,-39.29657 -19.6483,6.38412 -6.38409,-19.64827 39.29649,-12.76824 6.3842,19.64829 19.6482,-6.38411 -6.3841,-19.64828 39.2966,-12.768209 6.3841,19.648259 -19.6483,6.3841 6.3841,19.64829 19.6483,-6.38412 6.3841,19.64827 -39.2966,12.76821 -6.3841,-19.64826 -19.6482,6.38413 19.1523,58.94479 19.6483,-6.38409 -6.3841,-19.64827 39.2965,-12.76824 6.3841,19.64829 -19.6483,6.3841 6.3842,19.64826 19.6482,-6.3841 6.3841,19.64828 -39.2965,12.76821 -6.3841,-19.64826 -19.6483,6.38412 6.3841,19.64826 -39.2965,12.76822 -6.3841,-19.64827 19.6482,-6.38412 -12.7682,-39.29653 -19.6483,6.3841 6.3842,19.64829 -19.64832,6.3841 -6.3841,-19.64828 -19.64827,6.38412 12.76821,39.29655 19.64827,-6.38413 6.38411,19.64829 -19.64828,6.3841 12.76824,39.29655 19.64824,-6.38411 -6.3841,-19.64828 39.2966,-12.76821 6.3841,19.64827 -19.6483,6.3841 6.3841,19.64829 19.6483,-6.38413 6.3841,19.64828 -39.2966,12.76821 -6.3841,-19.64827 -19.6482,6.38413 12.7682,39.29653 19.6483,-6.3841 6.3841,19.64828 -19.6483,6.38408 12.7682,39.29657 19.6483,-6.38413 -6.3841,-19.64826 19.6483,-6.38413 6.3841,19.64829 19.6482,-6.38411 -12.7682,-39.29654 -19.6483,6.3841 -6.3841,-19.64826 58.9448,-19.15234 6.3842,19.64826 -19.6483,6.38412 12.7682,39.29656 19.6483,-6.38412 -6.3841,-19.64826 19.6483,-6.38413 6.384,19.64828 19.6484,-6.3841 -12.7683,-39.29657 -19.6482,6.38413 -6.3842,-19.64827 19.6483,-6.38412 -12.7682,-39.29654 -19.6483,6.38409 6.3841,19.64828 -39.2965,12.76824 -6.3841,-19.64829 19.6482,-6.3841 -6.3841,-19.64826 -19.6483,6.38408 -6.3841,-19.64826 39.2966,-12.76821 6.3841,19.64826 19.6483,-6.38412 -6.3842,-19.64827 19.6483,-6.3841 6.3841,19.64828 19.6483,-6.38412 -6.384,-19.64827 39.2964,-12.76822 6.3842,19.64826 -19.6484,6.38413 6.3843,19.64826 19.6482,-6.38411 6.384,19.64826 -39.2965,12.76824 -6.3841,-19.64829 -19.6482,6.38412 12.7681,39.29653 19.6484,-6.38408 6.3841,19.64826 -19.6482,6.38413 12.7681,39.29652 19.6483,-6.3841 -6.3842,-19.64829 19.6484,-6.38409 6.384,19.64827 19.6484,-6.38412 -12.7683,-39.29654 -19.6483,6.38412 -6.3841,-19.64829 58.9448,-19.15231 6.3842,19.64827 -19.6484,6.38409 12.7683,39.29656 19.6482,-6.38413 -6.3841,-19.64826 19.6484,-6.38411 6.3841,19.64829 19.6482,-6.38413 -12.7682,-39.29654 -19.6483,6.3841 -6.3841,-19.64826 19.6484,-6.38413 -12.7683,-39.29653 -19.6484,6.38409 6.3842,19.6483 -39.2965,12.76821 -6.3841,-19.64826 19.6482,-6.38413 -6.3841,-19.64826 -19.6483,6.3841 -6.3841,-19.64828 39.2966,-12.76821 6.3841,19.64827 19.6483,-6.3841 -12.7683,-39.29656 -19.6483,6.38413 -6.3841,-19.64828 19.6484,-6.38411 -12.7683,-39.29654 -19.6482,6.3841 6.384,19.64826 -19.6482,6.38413 -6.3842,-19.64827 -19.6482,6.38409 12.7682,39.29657 19.6483,-6.38413 6.3841,19.64826 -39.2966,12.76825 -6.3841,-19.64829 -19.6483,6.38412 6.3842,19.64827 -39.2965,12.76821 -6.3842,-19.64826 19.6483,-6.3841 -6.3841,-19.64829 -19.6483,6.38411 -6.3841,-19.64826 39.2966,-12.76821 6.384,19.64826 19.6484,-6.38412 -19.1524,-58.94481 -19.6483,6.3841 6.3842,19.64828 -39.2966,12.76824 -6.3841,-19.6483 19.6482,-6.38409 -6.3841,-19.648269 -19.6482,6.384089 -6.3842,-19.648265 39.2966,-12.76821 6.3841,19.648263 19.6482,-6.384125 -6.3841,-19.648264 39.2966,-12.76821 6.3841,19.648263 -19.6482,6.384126 12.7682,39.296522 19.6482,-6.38409 -6.384,-19.648294 19.6482,-6.384098 6.3841,19.648272 19.6483,-6.384119 -12.7683,-39.296543 -19.6482,6.384126 -6.3841,-19.648295 19.6483,-6.384098 -12.7683,-39.296555 -19.6482,6.384112 6.384,19.648278 -39.2965,12.76821 -6.3841,-19.648263 19.6484,-6.384099 -6.3842,-19.648291 -19.6483,6.384112 -6.3842,-19.648263 39.2966,-12.76821 6.3842,19.648263 19.6482,-6.384126 -12.7683,-39.296527 -19.6482,6.384099 -6.3841,-19.648277 19.6483,-6.384114 -12.7682,-39.29654 -19.6483,6.38413 6.384,19.64826 -19.6482,6.3841 -6.384,-19.64828 -19.6484,6.38413 12.7683,39.296538 19.6482,-6.384099 6.3842,19.648264 -58.9449,19.152336 -6.3841,-19.648291 19.6483,-6.384098 -12.7682,-39.29655 -19.6483,6.38412 6.3841,19.648265 -19.6483,6.384125 -6.3841,-19.64828 -19.6483,6.384101 12.7683,39.296568 19.6483,-6.384125 6.3841,19.648263 -19.6483,6.384126 12.7682,39.296527 19.6483,-6.384085 -6.3841,-19.648305 39.2965,-12.76821 6.3841,19.648291 -19.6482,6.384098 6.3841,19.648264 19.6482,-6.384098 6.3842,19.648277 -39.2966,12.768214 -6.3841,-19.648267 -19.6483,6.384125 6.3841,19.648268 -39.2965,12.76821 -6.3841,-19.648263 19.6483,-6.384126 -12.7683,-39.296531 -19.6482,6.384098 6.3841,19.648264 -19.6483,6.384125 -6.3841,-19.648277 -19.64829,6.384099 12.76819,39.296572 19.6483,-6.384126 6.3841,19.648291 -39.29654,12.768224 -6.3841,-19.648305 -19.64829,6.384126 6.38412,19.648267 -39.29654,12.76822 -6.38412,-19.648277 19.64828,-6.384084 -6.3841,-19.648291 -19.64829,6.384112 -6.3841,-19.648264 39.29652,-12.768228 6.38413,19.648281 19.64826,-6.384125 -19.15233,-58.944809 -19.64827,6.384099 6.38413,19.648263 -39.29657,12.768252 -6.3841,-19.648305 19.64828,-6.384084 -6.38412,-19.648278 -19.64827,6.384099 -6.38412,-19.648264 39.29656,-12.768224 6.38409,19.648277 19.6483,-6.384125 -6.38412,-19.648264 39.29655,-12.768224 6.3841,19.648278 -19.64826,6.384111 12.76821,39.296541 19.64831,-6.384099 -6.3841,-19.64829 19.6482,-6.384098 6.3842,19.648263 19.6482,-6.384112 -12.7682,-39.29654 -19.6483,6.384125 -6.3841,-19.648291 19.6483,-6.384098 -6.3841,-19.648267 -19.6483,6.38409 -6.38411,-19.64827 19.64831,-6.38412 -12.7683,-39.29653 -19.64824,6.38411 6.38411,19.64827 -19.64826,6.38411 -6.38413,-19.64826 -19.64826,6.38411 12.76822,39.29652 19.64826,-6.38408 6.38413,19.648264 -39.29654,12.76821 -6.38413,-19.648264 -19.64826,6.384099 6.3841,19.648291 -39.29654,12.768224 -6.38411,-19.648277 19.64826,-6.384112 -6.3841,-19.648275 -19.64826,6.3841 -6.38413,-19.64827 39.29657,-12.76822 6.38408,19.64828 19.64828,-6.3841 -19.15232,-58.94484 -19.64829,6.38412 6.38412,19.64827 -39.29656,12.76821 -6.38409,-19.64826 19.64826,-6.38411 -6.38409,-19.64828 -19.64829,6.38411 -6.3841,-19.64827 39.29654,-12.76821 6.38411,19.64826 19.64828,-6.38411 -6.38413,-19.64827 39.29657,-12.76822 6.38408,19.64826 -19.64826,6.38412 12.76821,39.29655 19.64831,-6.38411 -6.38413,-19.64828 19.64826,-6.38411 6.38413,19.64828 19.64826,-6.38412 -12.76821,-39.29654 -19.64828,6.38412 -6.38411,-19.64828 39.29653,-12.76822 6.38415,19.64827 19.6482,-6.38411 -6.384,-19.64827 39.2965,-12.76823 6.3841,19.64828 -19.6483,6.38411 6.3841,19.64827 19.6483,-6.38411 6.3841,19.64827 -39.2965,12.76822 -6.3841,-19.64826 -19.6483,6.38409 12.7682,39.29656 19.6483,-6.38411 6.3841,19.64827 -19.6483,6.38412 12.7682,39.29654 19.6483,-6.38413 -6.3841,-19.64826 19.6483,-6.38411 6.3841,19.64827 19.6483,-6.38411 -12.7683,-39.29654 -19.6482,6.38411 -6.3841,-19.64827 58.9448,-19.15234 6.3841,19.64828 -19.6483,6.38411 12.7682,39.29654 19.6483,-6.38411 -6.3841,-19.64827 19.6483,-6.38411 6.3841,19.64826 19.6482,-6.38411 -12.7681,-39.29654 -19.6484,6.38411 -6.3841,-19.64827 19.6483,-6.38411 -12.7682,-39.29654 -19.6483,6.38411 6.3841,19.64827 -39.2965,12.76821 -6.3841,-19.64826 19.6483,-6.38411 -6.3842,-19.64827 -19.6482,6.38411 -6.3842,-19.64828 39.2966,-12.76822 6.3841,19.64827 19.6483,-6.38411 -12.7682,-39.29654 -19.6483,6.38411 -6.3841,-19.64827 19.6483,-6.38412 -13.1673,-40.52455 -19.6483,6.38411 6.3842,19.64827 -19.6483,6.38412 -6.3841,-19.64828 -19.6483,6.38411 12.7682,39.29654 19.6483,-6.38411 6.3841,19.64828 -39.2965,12.76822 -6.3841,-19.64828 -19.6483,6.38412 6.3841,19.64827 -39.29655,12.76821 -6.38413,-19.64826 19.64828,-6.38411 -6.3841,-19.64828 -19.64826,6.38411 -6.38413,-19.64827 39.29659,-12.76821 6.3841,19.64826 19.6482,-6.38411 -19.1523,-58.94482 -19.64827,6.38411 6.38417,19.64828 -39.29659,12.76822 -6.38412,-19.64828 19.64828,-6.38411 -6.3841,-19.64827 -19.64829,6.38411 -6.3841,-19.64828 39.29653,-12.76821 6.38412,19.64826 19.64827,-6.38411 -6.3841,-19.64826 39.2965,-12.76823 6.3841,19.64827 -19.6482,6.38411 12.7682,39.29655 19.6483,-6.38411 -6.3841,-19.64828 19.6482,-6.38411 6.3841,19.64828 19.6483,-6.38411 -12.7682,-39.29654 -19.6483,6.38411 -6.3841,-19.64828 19.6483,-6.38411 -12.7682,-39.29654 -19.6483,6.38411 6.3841,19.64827 -39.2966,12.76822 -6.3841,-19.64828 19.6483,-6.38411 -6.3841,-19.64826 -19.6483,6.38411 -6.38409,-19.64828 39.29659,-12.76822 6.3841,19.64827 19.6483,-6.38411 -12.7683,-39.29654 -19.6482,6.38411 -6.3841,-19.64827 19.6482,-6.38412 -12.7682,-39.29655 -19.6483,6.38411 6.3841,19.64828 -19.64823,6.38411 -6.38413,-19.64828 -19.64826,6.38412 12.76822,39.29655 19.6483,-6.38411 6.3841,19.64826 -58.94484,19.15234 -6.3841,-19.64828 19.64826,-6.38411 -12.76821,-39.29654 -19.64829,6.38411 6.38412,19.64828 -19.64827,6.38411 -6.38412,-19.64828 -19.64827,6.38411 12.76823,39.29655 19.64826,-6.38412 6.38413,19.64828 -19.64828,6.38411 12.76822,39.29654 19.64827,-6.38411 -6.3841,-19.64826 39.29654,-12.76823 6.38411,19.64828 -19.64829,6.38411 6.38413,19.64827 19.64826,-6.38412 6.38412,19.64828 -39.29656,12.76823 -6.38409,-19.64828 -19.64828,6.38411 6.3841,19.64828 -19.64826,6.38411 -6.38413,-19.64828 -19.64826,6.38411 6.38413,19.64828 -39.29657,12.76821 -6.3841,-19.64826 19.64828,-6.38411 -6.38413,-19.64828 -19.64826,6.38411 -6.3841,-19.64828 39.29653,-12.76822 6.38412,19.64828 19.64827,-6.38412 -12.76822,-39.29654 -19.64829,6.38412 -6.38409,-19.64828 19.64826,-6.38411 -12.76821,-39.29654 -19.64826,6.38411 6.38408,19.64826 -19.64826,6.38411 -6.38413,-19.64826 -19.64826,6.38411 12.76822,39.29654 19.64829,-6.38411 6.3841,19.64828 -58.9448,19.15232 -6.38413,-19.64826 19.64826,-6.38412 -12.76821,-39.29654 -19.64826,6.3841 6.38409,19.64828 -19.64827,6.38411 -6.3841,-19.64828 -19.64829,6.38412 12.76824,39.29655 19.64828,-6.38411 6.38408,19.64826 -19.64826,6.38411 12.76822,39.29656 19.64829,-6.38411 -6.38412,-19.64828 39.29654,-12.76822 6.38411,19.64827 -19.64826,6.38411 6.3841,19.64828 19.64829,-6.38411 6.38409,19.64826 -39.29654,12.76823 -6.38411,-19.64828 -19.64828,6.38411 12.76823,39.29656 19.64826,-6.38412 6.38413,19.64828 -19.64827,6.38411 12.76821,39.29654 19.64827,-6.38411 -6.3841,-19.64827 19.64828,-6.3841 6.3841,19.64826 19.64829,-6.38411 -12.76826,-39.29654 -19.64826,6.38411 -6.3841,-19.64828 39.29654,-12.76822 6.38413,19.64828 19.64826,-6.38412 -6.38412,-19.64827 39.29656,-12.76823 6.38409,19.64828 -19.64826,6.38411 6.38412,19.64828 19.64827,-6.38411 6.38409,19.64827 -39.29654,12.76821 -6.38411,-19.64826 -19.64828,6.38411 19.15234,58.94482 19.64828,-6.38411 -6.3841,-19.64828 39.29654,-12.76822 6.38411,19.64827 -19.64829,6.38412 6.38413,19.64827 19.64826,-6.38411 6.38413,19.64827 -39.29657,12.76822 -6.3841,-19.64826 -19.64826,6.38411 6.38409,19.64826 -39.29654,12.76822 -6.38411,-19.64827 19.64826,-6.38411 -12.76821,-39.29654 -19.64827,6.38411 6.3841,19.64827 -19.64827,6.3841 -6.3841,-19.64826 -19.64829,6.38411 12.76824,39.29654 19.64826,-6.38411 6.3841,19.64827 -58.9448,19.15234 -6.38411,-19.64828 19.64826,-6.38411 -12.76822,-39.29654 -19.64827,6.38412 6.38413,19.64826 -19.64829,6.38411 -6.3841,-19.64828 -19.64826,6.38412 12.76821,39.29655 19.64826,-6.38412 6.38412,19.64827 -39.29655,12.76822 -6.3841,-19.64826 -19.64829,6.38411 6.38411,19.64826 -39.29652,12.76823 -6.38413,-19.64828 19.64826,-6.38411 -6.38408,-19.64827 -19.6483,6.38412 -6.38409,-19.64828 39.29653,-12.76822 6.38412,19.64827 19.64827,-6.38411 -19.15234,-58.94481 -19.64826,6.38411 6.38411,19.64828 -39.29656,12.76821 -6.38409,-19.64827 19.64826,-6.38411 -6.38411,-19.64828 -19.64828,6.38412 -6.38411,-19.64828 39.29655,-12.76823 6.3841,19.64828 19.64829,-6.38411 -6.38411,-19.64828 39.29653,-12.76821 6.38412,19.64827 -19.64827,6.38411 12.76822,39.29655 19.64826,-6.38411 -6.3841,-19.64828 19.64828,-6.38411 6.3841,19.64828 19.64829,-6.38411 -12.76825,-39.29654 -19.64826,6.38411 -6.3841,-19.64828 19.64828,-6.38411 -12.76823,-39.29656 -19.64829,6.38412 6.38413,19.64827 -39.29654,12.76823 -6.38413,-19.64828 19.64828,-6.38411 -6.3841,-19.64828 -19.64829,6.38411 -6.3841,-19.64826 39.29653,-12.76822 6.38412,19.64826 19.64827,-6.3841 -12.76821,-39.29655 -19.64827,6.38411 -6.38412,-19.64828 19.64826,-6.3841 -12.76821,-39.29655 -19.64828,6.38411 6.38413,19.64828 -19.64829,6.38411 -6.3841,-19.64828 -19.64829,6.38411 12.76824,39.29655 19.64827,-6.38412 6.38409,19.64828 -58.94479,19.15234 -6.38413,-19.64828 19.64826,-6.38411 -12.76821,-39.29654 -19.64827,6.38411 6.38412,19.64826 -19.64829,6.38411 -6.3841,-19.64826 -19.64826,6.38411 12.76821,39.29654 19.64828,-6.38411 6.38411,19.64828 -19.64829,6.38411 12.76825,39.29654 19.64826,-6.38411 -6.38412,-19.64828 39.29657,-12.76821 6.38408,19.64827 -19.64826,6.38411 6.38412,19.64827 19.64827,-6.38411 6.38409,19.64828 -39.29654,12.76822 -6.38411,-19.64827 -19.64828,6.38411 6.38413,19.64828 -19.64826,6.38411 -6.38413,-19.64828 -19.64826,6.38411 6.3841,19.64827 -39.29654,12.76822 -6.38413,-19.64826 19.64829,-6.38412 -6.38411,-19.64827 -19.64828,6.38411 -6.38411,-19.64828 39.29655,-12.76822 6.3841,19.64827 19.64827,-6.38411 -12.76821,-39.29654 -19.64827,6.3841 -6.38412,-19.64826 19.64829,-6.38411 -12.76824,-39.29656 -19.64828,6.38411 6.38413,19.64828 -19.64827,6.38411 -6.38412,-19.64828 -19.64826,6.38412 12.76821,39.29655 19.64827,-6.38411 6.38411,19.64826 -58.94481,19.15234 -6.3841,-19.64828 19.64826,-6.3841 -12.76821,-39.29655 -19.6483,6.38411 6.38412,19.64828 -19.64826,6.38411 -6.38413,-19.64828 -19.64826,6.38411 12.76821,39.29655 19.64828,-6.38412 6.38411,19.64828 -19.64826,6.38411 12.76821,39.29654 19.64827,-6.3841 -6.38409,-19.64827 39.29654,-12.76823 6.38411,19.64828 -19.64829,6.38411 6.38412,19.64827 19.64827,-6.3841 6.38412,19.64826 -39.29657,12.76823 -6.38409,-19.64828 -19.64829,6.38411 12.76825,39.29655 19.64826,-6.38411 6.3841,19.64826 -19.64828,6.38411 12.76823,39.29656 19.64829,-6.38411 -6.38413,-19.64828 19.64828,-6.38411 6.38411,19.64827 19.64828,-6.38411 -12.76823,-39.29653 -19.64826,6.38409 -6.38413,-19.64826 39.29657,-12.76822 6.38409,19.64827 19.64827,-6.38411 -6.3841,-19.64828 39.29653,-12.76822 6.38413,19.64828 -19.64827,6.38411 6.3841,19.64826 19.64827,-6.3841 6.38412,19.64826 -39.29654,12.76823 -6.38412,-19.64827 -19.64827,6.3841 19.15234,58.94482 19.64827,-6.3841 -6.38412,-19.64827 39.29655,-12.76823 6.3841,19.64828 -19.64826,6.38411 6.38412,19.64826 19.64827,-6.38411 6.3841,19.64828 -39.29654,12.76822 -6.38413,-19.64827 -19.64826,6.38411 6.38412,19.64828 -39.29657,12.76822 -6.38409,-19.64828 19.64827,-6.38411 -12.76822,-39.29654 -19.64829,6.3841 6.38412,19.64827 -19.64826,6.38412 -6.38413,-19.64828 -19.64826,6.38411 12.76821,39.29656 19.64826,-6.38412 6.38413,19.64827 -19.64826,6.38412 12.76821,39.296531 19.64826,-6.384085 -6.38408,-19.648306 39.29652,-12.76821 6.38413,19.648265 -19.64829,6.384126 6.38411,19.648263 19.64828,-6.384098 6.38411,19.648277 -39.29656,12.76821 -6.38409,-19.648263 -19.64827,6.384098 12.76821,39.296554 19.64828,-6.384125 6.38411,19.648277 -19.64829,6.384112 12.76824,39.296545 19.64828,-6.384099 -6.38413,-19.648267 19.64826,-6.384126 6.38413,19.648277 19.64826,-6.384098 -12.76821,-39.296568 -19.64826,6.384126 -6.38413,-19.648264 58.94484,-19.152336 6.38408,19.648263 -19.64826,6.384126 12.76822,39.296527 19.64829,-6.384098 -6.38412,-19.648291 19.64826,-6.384098 6.38412,19.648277 19.64827,-6.384126 -12.76821,-39.29654 -19.64827,6.384098 -6.38412,-19.648263 19.64826,-6.384099 -12.76821,-39.296552 -19.64828,6.38411 6.38413,19.648277 -39.29655,12.76821 -6.38413,-19.648263 19.64829,-6.384126 -6.38412,-19.648268 -19.64827,6.38412 -6.38411,-19.64827 39.29655,-12.76824 6.3841,19.6483 19.64829,-6.38413 -6.38412,-19.64826 39.29654,-12.76823 6.38412,19.64828 -19.64827,6.3841 12.76822,39.296553 19.64826,-6.384125 -6.38409,-19.648268 19.64826,-6.38412 6.3841,19.6483 19.64829,-6.38412 -12.76824,-39.29654 -19.64826,6.38411 -6.3841,-19.64828 39.29654,-12.76822 6.38411,19.64827 19.64828,-6.38411 -6.38413,-19.64828 39.29656,-12.76822 6.3841,19.64828 -19.64827,6.38411 6.38413,19.64828 19.64826,-6.38412 6.3841,19.64828 -39.29654,12.76821 -6.38413,-19.64826 -19.64826,6.3841 19.15234,58.944829 19.64826,-6.384125 -6.38409,-19.648264 39.29653,-12.76822 6.38413,19.648274 -19.64829,6.384111 6.38411,19.648278 19.64828,-6.384126 6.38411,19.648291 -39.29656,12.768224 -6.38409,-19.648277 -19.64827,6.384098 6.3841,19.648263 -39.29654,12.768251 -6.38413,-19.648304 19.64828,-6.384085 -12.76822,-39.296567 -19.64827,6.384125 6.38413,19.648264 -19.64831,6.384125 -6.38408,-19.64829 -19.64828,6.384112 12.76823,39.296567 19.64826,-6.384125 6.38413,19.648263 -19.64829,6.384126 6.38411,19.648263 19.64827,-6.384112 6.38412,19.648291 -19.64827,6.384099 12.76821,39.296558 19.64828,-6.384126 -6.38413,-19.648263 19.6483,-6.384112 6.38409,19.648263 19.64827,-6.384098 -12.76821,-39.296558 -19.64827,6.384112 -6.38412,-19.648264 39.29655,-12.768224 6.3841,19.648277 19.64829,-6.384125 -6.38411,-19.648264 39.29653,-12.768224 6.38412,19.648277 -19.64826,6.384112 6.38408,19.648277 19.64831,-6.384125 6.38408,19.648263 -39.29652,12.768256 -6.38413,-19.648309 -19.64826,6.384126 19.15233,58.944833 19.64827,-6.384123 -6.38412,-19.648264 39.29656,-12.768224 6.3841,19.648277 -19.64827,6.384085 6.38411,19.648308 19.64828,-6.38413 6.38411,19.64826 -39.29655,12.76823 -6.3841,-19.64828 -19.64829,6.38413 6.38411,19.64826 -39.29652,12.76822 -6.38413,-19.64826 19.64826,-6.38413 -12.76821,-39.296536 -19.64826,6.384126 6.3841,19.64826 -19.64828,6.3841 -6.3841,-19.648259 -19.64829,6.384109 12.76823,39.29654 19.64829,-6.3841 6.38409,19.64828 -39.29654,12.76821 -6.38412,-19.64826 -19.64827,6.38408 6.38413,19.6483 -39.29657,12.76822 -6.38408,-19.64827 19.64826,-6.38412 -6.38412,-19.64827 -19.64827,6.3841 -6.38412,-19.64828 39.29656,-12.76821 6.38409,19.64827 19.6483,-6.3841 -12.76825,-39.296555 -19.64826,6.384126 -6.3841,-19.648277 19.64828,-6.384112 -12.76823,-39.296545 -19.64829,6.384098 6.38413,19.648268 -19.64828,6.384126 -6.38411,-19.648268 -19.64828,6.384089 12.76823,39.296568 19.64826,-6.384126 6.38413,19.648258 -58.94484,19.15235 -6.38409,-19.64827 19.64826,-6.384109 -12.76821,-39.296546 -19.64826,6.384126 6.38409,19.648264 -19.64827,6.384098 -6.38412,-19.648264 -19.64827,6.384112 12.76822,39.296539 19.64829,-6.3841 6.3841,19.64827 -19.64828,6.38409 12.76823,39.29657 19.64826,-6.38412 -6.3841,-19.64827 39.29654,-12.76822 6.38413,19.64826 -19.64828,6.38413 6.3841,19.64826 19.64826,-6.38411 6.38413,19.64826 -39.29653,12.76824 -6.38412,-19.64829 -19.64827,6.38413 6.38409,19.64826 -19.64827,6.38413 -6.38409,-19.64828 -19.64829,6.3841 6.38412,19.64827 -39.29654,12.76824 -6.38411,-19.64829 19.64826,-6.3841 -6.3841,-19.64826 -19.64829,6.38408 -6.3841,-19.64826 39.29654,-12.76821 6.38412,19.64826 19.64827,-6.38412 -12.76822,-39.29653 -19.64826,6.38411 -6.38413,-19.64829 19.64826,-6.3841 -12.76821,-39.29655 -19.64826,6.384125 6.38409,19.648265 -19.64827,6.38412 -6.3841,-19.648299 -19.64829,6.384119 12.76825,39.29655 19.64827,-6.3841 6.3841,19.64826 -58.94481,19.15234 -6.38412,-19.64827 19.64826,-6.38412 -12.76821,-39.29653 -19.64826,6.3841 6.38411,19.64826 -19.64829,6.38413 -6.3841,-19.64828 -19.64827,6.3841 12.76823,39.29657 19.64826,-6.38413 6.38413,19.64826 -19.64831,6.38413 12.76823,39.29655 19.64829,-6.38411 -6.38413,-19.64827 39.29657,-12.76821 6.3841,19.64826 -19.64828,6.3841 6.38413,19.64829 19.64826,-6.38413 6.3841,19.64828 -39.29654,12.76821 -6.38411,-19.64826 -19.64827,6.38412 6.38412,19.64827 -39.29656,12.76821 -6.3841,-19.64827 19.64827,-6.38412 -12.76821,-39.29653 -19.64829,6.3841 6.38411,19.64829 -19.64827,6.3841 -6.38412,-19.64828 -19.64827,6.38413 12.76821,39.29654 19.64828,-6.3841 6.38411,19.64826 -39.29652,12.76821 -6.38413,-19.64826 -19.64826,6.3841 6.3841,19.64829 -39.29654,12.76822 -6.38413,-19.6483 19.6483,-6.38409 -6.38412,-19.64827 -19.64826,6.38409 -6.38413,-19.64826 39.29655,-12.76822 6.3841,19.64827 19.64828,-6.38412 -19.15232,-58.94481 -19.64829,6.3841 6.38412,19.64829 -39.29654,12.76823 -6.38411,-19.64828 19.64826,-6.38411 -6.3841,-19.64828 -19.64829,6.3841 -6.38409,-19.64826 39.29654,-12.76823 6.38411,19.64828 19.64827,-6.3841 -6.38412,-19.64829 39.29655,-12.76822 6.3841,19.64827 -19.64826,6.38411 12.76821,39.29654 19.6483,-6.38409 -6.38412,-19.64827 19.64826,-6.38412 6.38413,19.64826 19.64826,-6.38408 -12.76821,-39.29657 -19.64828,6.38412 -6.38411,-19.64827 19.64826,-6.38412 -6.38409,-19.64827 -19.64829,6.3841 -6.3841,-19.64827 19.64826,-6.384099 -12.76821,-39.29655 -19.64826,6.384112 6.38408,19.648277 -19.64826,6.384112 -6.38411,-19.648291 -19.64828,6.384126 12.76822,39.296523 19.64829,-6.38408 6.3841,19.64826 -39.29654,12.76821 -6.38412,-19.64826 -19.64827,6.38412 6.38413,19.64827 -39.29657,12.76822 -6.38409,-19.64828 19.64827,-6.38411 -6.38413,-19.64827 -19.64826,6.38412 -6.38413,-19.64829 39.29657,-12.768223 6.38409,19.648273 19.6483,-6.3841 -19.15235,-58.94483 -19.64826,6.38413 6.3841,19.648264 -39.29654,12.768224 -6.38412,-19.648277 19.64827,-6.384112 -6.3841,-19.648282 -19.64827,6.384126 -6.38412,-19.648264 39.29654,-12.768251 6.38413,19.648305 19.64826,-6.384126 -6.3841,-19.648264 39.29654,-12.768224 6.38411,19.648264 -19.64829,6.384098 12.76824,39.296572 19.64828,-6.384125 -6.38413,-19.648268 19.64829,-6.384125 6.3841,19.64829 19.64826,-6.384125 -12.76821,-39.296528 -19.64826,6.384099 -6.38413,-19.648277 39.29656,-12.76821 6.3841,19.648263 19.64829,-6.384112 -6.38411,-19.648277 39.29652,-12.76821 6.38413,19.648263 -19.64826,6.384126 6.38408,19.648263 19.6483,-6.384126 6.38409,19.648305 -39.29653,12.76821 -6.38412,-19.648263 -19.64827,6.384085 12.76821,39.296571 19.64828,-6.384129 6.38411,19.648281 -19.64826,6.384112 12.76821,39.296544 19.64828,-6.3841 -6.3841,-19.648292 19.64826,-6.384099 6.3841,19.648262 19.64829,-6.38411 -12.76824,-39.296541 -19.64826,6.384126 -6.3841,-19.648295 58.94481,-19.152323 6.38411,19.648278 -19.64827,6.384084 12.76821,39.296572 19.64828,-6.384125 -6.38412,-19.648264 19.64829,-6.384125 6.38409,19.64829 19.64827,-6.384112 -12.76821,-39.296544 -19.64827,6.384098 -6.38412,-19.648264 19.64829,-6.384125 -12.76824,-39.296541 -19.64828,6.384126 6.38413,19.648263 -39.29655,12.768224 -6.3841,-19.648263 19.64826,-6.384126 -6.38412,-19.648263 -19.64827,6.384112 -6.3841,-19.648291 39.29654,-12.76821 6.38413,19.648263 19.64826,-6.384098 -12.76822,-39.296557 -19.64829,6.38411 -6.3841,-19.64826 19.64828,-6.38413 -12.76823,-39.29654 -19.64826,6.38412 6.3841,19.64827 -19.64828,6.38411 -6.38411,-19.64827 -19.64826,6.38411 12.76821,39.29655 19.64829,-6.38412 6.3841,19.64829 -39.29655,12.76821 -6.38411,-19.64826 -19.64827,6.3841 6.38412,19.648259 -39.29655,12.768251 -6.3841,-19.648304 19.64826,-6.384085 -6.38412,-19.648281 -19.64827,6.3841 -6.38412,-19.64826 39.29657,-12.76823 6.38409,19.64828 19.64829,-6.38412 -19.15233,-58.94481 -19.64828,6.38411 6.3841,19.64827 -39.29653,12.76822 -6.38412,-19.64828 19.64826,-6.38411 -6.38408,-19.64826 -19.64828,6.38411 -6.38411,-19.64828 39.29652,-12.76822 6.38413,19.64828 19.64826,-6.38412 -6.3841,-19.64827 39.29655,-12.76823 6.38412,19.64828 -19.6483,6.38411 12.76825,39.29654 19.64826,-6.38411 -6.38412,-19.64826 19.64827,-6.38411 6.38411,19.64826 19.64828,-6.3841 -12.76822,-39.29655 -19.64827,6.38411 -6.38412,-19.64827 19.64826,-6.3841 -12.76821,-39.29656 -19.64826,6.38411 6.38411,19.64828 -39.29655,12.76823 -6.3841,-19.64828 19.64826,-6.38411 -6.38411,-19.64828 -19.64828,6.38411 -6.38411,-19.64826 39.29655,-12.76823 6.3841,19.64827 19.64829,-6.38411 -12.76823,-39.29655 -19.64827,6.38412 -6.3841,-19.64828 19.64827,-6.38411 -12.76821,-39.29654 -19.64831,6.38411 6.38413,19.64826 -19.64827,6.38411 -6.38412,-19.64826 -19.64826,6.38411 12.76821,39.29654 19.64827,-6.38411 6.38412,19.64828 -58.94484,19.15233 -6.38408,-19.64827 19.64826,-6.38411 -12.76821,-39.29656 -19.64827,6.38411 6.38409,19.64828 -19.64826,6.38411 -6.38413,-19.64827 -19.64826,6.38411 12.76821,39.29655 19.64829,-6.38411 6.3841,19.64828 -19.64826,6.38411 12.76821,39.29654 19.64827,-6.38411 -6.38409,-19.64828 39.29652,-12.76822 6.38413,19.64827 -19.64826,6.38412 6.38409,19.64827 19.64827,-6.38411 6.38412,19.64826 -39.29654,12.76822 -6.38412,-19.64826 -19.64827,6.38412 6.3841,19.64826 -19.64826,6.38411 -6.3841,-19.64828 -19.64829,6.38411 6.38411,19.64828 -39.29653,12.76822 -6.38412,-19.64827 19.64826,-6.38412 -6.38408,-19.64825 -19.64831,6.3841 -6.3841,-19.64827 39.29654,-12.76822 6.38413,19.64827 19.64826,-6.38411 -12.76821,-39.29655 -19.64827,6.38411 -6.38412,-19.64826 19.64827,-6.38412 -12.76823,-39.29655 -19.64826,6.38411 6.3841,19.64828 -19.64826,6.38411 -6.38412,-19.64828 -19.64826,6.38412 12.76821,39.29655 19.64828,-6.38411 6.3841,19.64826 -58.94481,19.15234 -6.38411,-19.64828 19.64828,-6.38411 -12.76823,-39.29654 -19.64827,6.38411 6.38411,19.64828 -19.64828,6.38411 -6.38411,-19.64828 -19.64827,6.38411 12.76823,39.29654 19.64826,-6.38411 6.38411,19.64828 -19.64827,6.38411 12.76822,39.29654 19.64828,-6.38411 -6.38411,-19.64827 39.29654,-12.76822 6.38411,19.64828 -19.64826,6.38409 6.38411,19.64828 19.64826,-6.38411 6.38411,19.64828 -39.29654,12.76822 -6.38411,-19.64828 -19.64828,6.38411 12.76823,39.29655 19.64827,-6.38412 6.38412,19.64828 -19.64828,6.38411 12.76822,39.296531 19.64828,-6.384081 -6.38411,-19.64828 19.64826,-6.38411 6.3841,19.64826 19.64829,-6.3841 -12.76821,-39.29655 -19.64829,6.38411 -6.38411,-19.64828 39.29655,-12.76821 6.38411,19.64826 19.64827,-6.38411 -6.38411,-19.64826 39.29655,-12.76823 6.3841,19.64828 -19.64827,6.38411 6.38412,19.64827 19.64827,-6.38411 6.38412,19.64827 -39.29656,12.76821 -6.3841,-19.64826 -19.64829,6.38411 19.15234,58.944807 19.64826,-6.384099 -6.38408,-19.648268 39.29652,-12.76823 6.38413,19.64829 -19.64826,6.384096 6.38408,19.648291 19.64828,-6.384126 6.38411,19.648264 -39.29653,12.768224 -6.38412,-19.648264 -19.64827,6.384112 6.3841,19.648277 -39.29654,12.76821 -6.38412,-19.648263 19.64827,-6.384125 -12.76822,-39.296527 -19.64826,6.384084 6.38412,19.648291 -19.64829,6.384098 -6.38411,-19.648263 -19.64826,6.384126 12.76822,39.296527 19.64826,-6.384112 6.38413,19.64829 -58.94483,19.152309 -6.38412,-19.648264 19.64828,-6.384098 -12.76822,-39.296568 -19.64828,6.384126 6.38411,19.648263 -19.64826,6.384126 -6.38411,-19.648291 -19.64828,6.384126 12.76822,39.296527 19.64827,-6.384099 6.38411,19.648278 -39.29654,12.76821 L 97.888357,-5.424518 78.24008,0.959607 84.624192,20.607871 45.327651,33.376085 38.943539,13.727818 58.591816,7.343692 52.207704,-12.304572 32.559427,-5.920446 26.175315,-25.568737 65.47187,-38.336961 l 6.384112,19.648264 19.648263,-6.384085 -19.152336,-58.944831 -19.648263,6.384125 6.384112,19.648264 -39.296555,12.76821 -6.384112,-19.648263 19.648277,-6.384126 -6.384112,-19.648263 -19.6482631,6.384125 -6.38411194,-19.648279 39.29654104,-12.76824 6.384112,19.648295 19.648263,-6.384115 -6.384098,-19.64827 39.29654,-12.76822 6.384111,19.64827 -19.648276,6.3841 12.768224,39.296552 19.648282,-6.384112 -6.38412,-19.648277 19.64827,-6.384113 6.38411,19.648291 19.64828,-6.384125 -12.76823,-39.296526 -19.64828,6.38408 -6.38409,-19.64826 19.64826,-6.38411 -12.76821,-39.29654 -19.64828,6.38411 6.38411,19.64826 -39.29655,12.76823 -6.384112,-19.64827 19.648277,-6.38411 -6.384112,-19.64828 -19.648277,6.38412 -6.384098,-19.64828 39.29654,-12.76823 6.384112,19.64828 19.64828,-6.38411 -12.76823,-39.29654 -19.648274,6.38411 -6.384111,-19.64827 19.648277,-6.38411 -12.768224,-39.29654 -19.648277,6.38411 6.384112,19.64826 -19.648264,6.38411 -6.384112,-19.64826 -19.648277,6.3841 12.768224,39.29655 19.648277,-6.38411 6.384098,19.64827 -58.9448037,19.15233 -6.384112,-19.64827 19.6482637,-6.38411 -12.7682106,-39.29655 -19.6482774,6.38411 6.3841123,19.64828 -19.6482773,6.38411 -6.384112,-19.64828 -19.648263,6.38412 12.76821,39.29655 19.648277,-6.38412 6.384112,19.64827 -19.648277,6.38411 12.768224,39.29654 19.6482771,-6.3841 -6.384112,-19.64828 39.2965409,-12.76822 6.384112,19.64828 -19.648277,6.38411 6.384112,19.64826 19.648277,-6.3841 6.384112,19.64827 -39.296555,12.76822 -6.3840979,-19.64828 -19.6482771,6.38412 6.384112,19.64826 -19.648277,6.38413 -6.384112,-19.64827 -19.648264,6.38409 6.384112,19.6483 -39.296554,12.768213 -6.384108,-19.648263 19.648273,-6.38413 -6.384112,-19.64827 -19.648271,6.38411 -6.384116,-19.64827 39.296552,-12.76822 6.384112,19.64826 19.648277,-6.38411 -12.768223,-39.29654 -19.648278,6.38411 -6.384112,-19.64827 19.648278,-6.38412 -12.768224,-39.29653 -19.648273,6.38411 6.384107,19.64827 -19.648266,6.38411 -6.38411,-19.64827 -19.64828,6.38411 12.76822,39.29654 19.648277,-6.38411 6.384112,19.64828 -58.944819,19.15233 -6.38411,-19.64828 19.64827,-6.38411 -12.76822,-39.29654 -19.64827,6.38411 6.38411,19.64827 -19.64828,6.38411 -6.38411,-19.64828 -19.64827,6.38411 12.76822,39.29656 19.64827,-6.38411 6.38412,19.64827 -19.64828,6.38411 12.76822,39.29655 19.64828,-6.38412 -6.38411,-19.64827 39.29654,-12.76823 6.38411,19.64828 -19.64827,6.38413 6.38411,19.64826 19.64827,-6.38411 6.38412,19.648261 -39.29655,12.768238 -6.38411,-19.648291 -19.64827,6.384126 12.76822,39.296527 19.64827,-6.384085 6.38411,19.648263 -19.64827,6.384112 12.76822,39.296541 19.64827,-6.384126 -6.38411,-19.648263 19.64828,-6.384099 6.384106,19.648278 19.648269,-6.384126 -12.768219,-39.296541 -19.648276,6.384099 -6.38411,-19.648264 39.296546,-12.768224 6.384112,19.648277 19.648277,-6.384098 -6.384112,-19.648291 39.296541,-12.768223 6.384112,19.648263 -19.648264,6.384126 6.384099,19.648263 19.6482768,-6.384085 6.38411201,19.648264 -39.29654081,12.76821 -6.384112,-19.648263 -19.648277,6.384098 19.152336,58.944831 L -26.38539,13.231863 -32.769489,-6.416401 6.5270518,-19.184625 12.91115,0.463652 -6.7371133,6.847764 -0.35300135,26.496028 19.295262,20.111916 l 6.384112,19.648295 -39.29654,12.76821 -6.384112,-19.648263 -19.648264,6.384098 6.384112,19.648263 -39.296554,12.768252 -6.384112,-19.648305 19.648277,-6.384084 -12.768224,-39.296572 -19.64827,6.384125 6.384105,19.648268 -19.648262,6.384125 -6.38412,-19.648267 -19.64827,6.384085 12.76822,39.296572 19.648276,-6.384126 6.384111,19.648259 -19.648277,6.384129 12.768224,39.29654 19.648269,-6.3841 -6.384107,-19.64829 39.296549,-12.76822 6.384112,19.64826 -19.648277,6.38413 6.384112,19.64826 19.648277,-6.38408 6.384112,19.64826 -39.296554,12.76821 -6.384112,-19.64826 -19.648269,6.38409 12.768215,39.29656 19.648278,-6.38411 6.384112,19.64829 -19.648278,6.3841 12.768224,39.29655 19.648278,-6.38413 -6.384112,-19.64826 19.648277,-6.38412 6.384112,19.64827 19.6482632,-6.3841 -12.7682102,-39.29655 -19.648277,6.38411 -6.384112,-19.64826 58.944817,-19.15234 6.384099,19.64827 -19.6482637,6.38412 12.7682237,39.29653 19.648264,-6.38409 -6.384112,-19.6483 19.648277,-6.38409 6.384112,19.64827 19.648277,-6.38413 -12.768224,-39.29652 -19.648277,6.38411 -6.384112,-19.64829 19.648277,-6.3841 L 44.83171,98.70501 25.183433,105.08914 31.567545,124.7374 -7.7289956,137.50561 -14.113108,117.85735 5.5351695,111.47322 -0.8489425,91.82496 -20.49722,98.20909 -26.881318,78.560811 12.415209,65.792573 18.799321,85.44086 38.447598,79.05675 32.063486,59.408474 71.36004,46.640264 l 6.384099,19.648263 -19.648264,6.384099 12.768224,39.296554 19.648264,-6.38411 -6.384112,-19.64828 19.648279,-6.38408 6.38411,19.64826 19.64828,-6.38413 -12.76823,-39.296523 -19.648274,6.384085 -6.384112,-19.648264 39.296556,-12.76821 6.38411,19.648263 19.64826,-6.384098 -6.38411,-19.648295 39.29656,-12.768224 6.38411,19.648281 -19.64828,6.384112 6.38411,19.648278 19.64827,-6.384099 6.38411,19.648264 -39.29654,12.76822 -6.38411,-19.648273 -19.64828,6.384098 19.15233,58.944835 19.64828,-6.38413 -6.38411,-19.64826 39.29654,-12.76821 6.38413,19.64826 -19.64828,6.38411 6.3841,19.64828 19.64826,-6.38413 6.38413,19.64829 -39.29654,12.76823 -6.38412,-19.64828 -19.64827,6.3841 6.38411,19.64828 -39.29654,12.76823 -6.38411,-19.64829 19.64827,-6.3841 -12.76822,-39.29656 -19.64828,6.38412 6.38411,19.64827 -19.64827,6.38412 -6.384115,-19.64826 -19.648277,6.3841 12.768224,39.29655 19.648278,-6.38413 6.38411,19.64828 -19.648276,6.38411 6.384116,19.64828 19.64827,-6.38412 6.38411,19.64829 -19.64827,6.38409 12.76822,39.29656 19.64828,-6.38411 -6.38411,-19.64828 19.64826,-6.38411 6.38411,19.64826 19.64828,-6.3841 -12.76822,-39.29655 -19.64828,6.38411 -6.3841,-19.64826 39.29654,-12.76821 6.38411,19.64826 19.64828,-6.38413 -6.38411,-19.64826 39.29655,-12.76821 6.3841,19.64826 -19.64828,6.38413 6.38413,19.64826 19.64826,-6.38412 6.3841,19.64826 -39.29654,12.76825 -6.38411,-19.64829 -19.64827,6.38411 19.15233,58.94483 19.64827,-6.38412 -6.38409,-19.64826 39.29654,-12.76821 6.38411,19.64826 -19.64829,6.3841 6.38412,19.64829 19.64827,-6.38413 6.38412,19.64827 -39.29657,12.76822 -6.38408,-19.64826 -19.64828,6.38411 6.3841,19.64828 -39.29654,12.76821 -6.38411,-19.64827 19.64828,-6.38412 -12.76823,-39.29653 -19.64828,6.38411 6.38412,19.64827 -19.64828,6.38409 -6.3841,-19.64826 -19.64828,6.38413 12.76823,39.29652 19.64826,-6.3841 6.38411,19.64828 -39.29654,12.76821 -6.38411,-19.64826 -19.64828,6.3841 6.38412,19.64829 -39.296545,12.76821 -6.384112,-19.64827 19.648277,-6.38412 -6.384112,-19.64826 -19.648277,6.38409 -6.384112,-19.64826 39.296554,-12.76822 6.384098,19.64826 19.648279,-6.38409 -12.76823,-39.29656 -19.648259,6.38412 -6.384112,-19.64826 19.648263,-6.38413 -12.76821,-39.29654 -19.648277,6.3841 6.384112,19.64826 -19.648277,6.38413 -6.384112,-19.64826 -19.648264,6.3841 12.768211,39.29655 19.648277,-6.38413 6.384112,19.64828 -58.944818,19.15234 -6.384112,-19.64827 19.648277,-6.38412 -12.7682238,-39.29654 -19.6482772,6.38412 6.3841121,19.64827 -19.6482631,6.38409 -6.384112,-19.64826 -19.648278,6.38411 12.768224,39.29654 19.648278,-6.38409 6.384112,19.64826 -19.648278,6.3841 12.768224,39.29657 19.6482639,-6.38413 -6.3840984,-19.64826 39.2965275,-12.76823 6.384112,19.64828 -19.648264,6.38411 6.384112,19.64828 19.648263,-6.38413 6.384112,19.64827 -39.2965401,12.76825 -6.384112,-19.64831 -19.6482639,6.38413 12.7682244,39.29654 19.6482636,-6.3841 6.384112,19.64826 -19.6482773,6.38413 12.7682243,39.29653 19.648277,-6.38411 -6.384112,-19.64828 19.648263,-6.38409 6.384112,19.64827 19.648277,-6.38413 -12.768224,-39.29653 -19.648277,6.38409 -6.384112,-19.64826 39.296555,-12.76822 6.384112,19.64827 19.648261,-6.3841 -6.38411,-19.64829 39.29655,-12.76822 6.38412,19.64827 -19.64828,6.38411 6.38411,19.64828 19.64828,-6.3841 6.38411,19.64827 -39.29655,12.76822 -6.38412,-19.64828 -19.648259,6.3841 19.152319,58.94483 19.64828,-6.3841 -6.38411,-19.64829 39.29654,-12.76821 6.38411,19.64827 -19.64826,6.38411 6.38411,19.64828 19.64826,-6.3841 6.38411,19.64826 -39.29654,12.76823 -6.38411,-19.64828 -19.64828,6.3841 6.38412,19.64829 -39.296544,12.76822 -6.384112,-19.64826 19.648277,-6.38413 -12.768224,-39.29654 -19.648277,6.3841 6.384112,19.64826 -19.648277,6.38413 -6.384112,-19.64826 -19.648263,6.38409 12.76821,39.29656 19.648277,-6.38413 6.384112,19.64828 -19.648277,6.38411 12.768224,39.29654 19.648277,-6.3841 -6.384112,-19.64826 39.296539,-12.76825 6.38411,19.6483 -19.64826,6.38409 6.384099,19.64828 19.648281,-6.3841 6.38411,19.64826 -39.296543,12.76822 -6.384112,-19.64827 -19.648277,6.38412 12.768224,39.29654 19.648277,-6.38412 6.384112,19.64829 -19.648277,6.3841 12.768224,39.29655 19.648262,-6.38411 -6.3841,-19.64828 19.64827,-6.38411 6.38411,19.64826 19.64828,-6.38409 -12.76823,-39.29656 -19.64828,6.38411 -6.38411,-19.64826 58.94483,-19.15234 6.3841,19.64827 -19.64826,6.38412 12.76821,39.29654 19.64828,-6.38409 -6.38412,-19.6483 19.64828,-6.38409 6.38411,19.64826 19.64828,-6.38413 -12.76824,-39.29652 -19.64826,6.38412 -6.38411,-19.6483 19.64827,-6.38409 -12.76822,-39.29656 -19.64828,6.38412 6.38412,19.64826 -39.29655,12.76823 -6.38411,-19.64828 19.64828,-6.3841 -6.38411,-19.64829 -19.64828,6.38413 -6.38411,-19.64827 39.29654,-12.76822 6.38411,19.64828 19.64828,-6.38413 -6.38411,-19.64826 19.64827,-6.38413 6.38412,19.64829 19.64826,-6.38412 -6.3841,-19.64827 39.29653,-12.76821 6.38412,19.64827 -19.64826,6.3841 6.3841,19.64829 19.64826,-6.38413 6.38413,19.64826 -39.29654,12.76823 -6.38413,-19.64826 -19.64826,6.38411 12.76821,39.29654 19.64828,-6.3841 6.38411,19.64826 -19.64827,6.3841 12.76823,39.29657 19.64826,-6.38413 -6.38412,-19.64826 19.64829,-6.38413 6.38409,19.6483 19.64827,-6.38413 -12.76821,-39.29653 -19.64827,6.3841 -6.38412,-19.64828 58.94483,-19.15233 6.38411,19.64828 -19.64829,6.38411 12.76825,39.29656 19.64827,-6.38412 -6.38413,-19.64826 19.64828,-6.38413 6.38411,19.64826 19.64828,-6.38408 -12.76823,-39.29657 -19.64826,6.38413 -6.38413,-19.64828 19.64829,-6.38411 -12.76823,-39.29654 -19.64827,6.3841 6.38412,19.64826 -39.29656,12.76825 -6.3841,-19.6483 19.64827,-6.38409 -6.38412,-19.64828 -19.64827,6.3841 -6.38412,-19.64826 39.29656,-12.76823 6.38412,19.64828 19.64827,-6.38412 -12.76821,-39.29654 -19.64831,6.38412 -6.38408,-19.64829 19.64826,-6.3841 -12.76822,-39.29655 -19.64827,6.38411 6.3841,19.64828 -19.64826,6.38411 -6.38413,-19.64826 -19.64826,6.38409 12.76821,39.29656 19.64829,-6.38411 6.3841,19.64826 -39.29653,12.76821 -6.38412,-19.64826 -19.64827,6.38412 6.38409,19.64827 -39.29653,12.76822 -6.38411,-19.64828 19.64828,-6.38411 -6.38412,-19.64828 -19.64827,6.38413 -6.38411,-19.64826 39.29655,-12.76826 6.3841,19.64831 19.64826,-6.38413 -19.15231,-58.94483 -19.64827,6.38413 6.38411,19.64826 -39.29656,12.76822 -6.38411,-19.64827 19.64828,-6.3841 -6.38411,-19.64829 -19.64827,6.38412 -6.38411,-19.64826 39.29654,-12.76825 6.38411,19.6483 19.64827,-6.38412 -6.3841,-19.64827 39.29654,-12.76822 6.38413,19.64826 -19.6483,6.38413 12.76824,39.29654 19.64827,-6.38413 -6.38412,-19.64826 19.64827,-6.3841 6.38412,19.64827 19.64827,-6.38413 -12.76823,-39.29653 -19.64826,6.3841 -6.38413,-19.64827 39.29657,-12.76822 6.3841,19.64827 19.64826,-6.3841 -6.3841,-19.64829 39.29655,-12.76821 6.38411,19.64826 -19.64827,6.38413 6.3841,19.64826 19.64827,-6.3841 6.38412,19.64828 -39.29654,12.76821 -6.38411,-19.64826 -19.64828,6.38408 12.76823,39.29657 19.64826,-6.38413 6.38412,19.64828 -19.64827,6.38411 12.76822,39.29654 19.64826,-6.38409 -6.38411,-19.64827 19.64829,-6.38412 6.38409,19.64826 19.64828,-6.38409 -12.76823,-39.29656 -19.64826,6.38412 -6.38413,-19.64827 58.94483,-19.15234 6.38413,19.64828 -19.64829,6.38411 12.76824,39.29654 19.64826,-6.38413 -6.38411,-19.64826 19.64826,-6.3841 6.38413,19.64827 19.64826,-6.38412 -12.76822,-39.29654 -19.64827,6.3841 -6.38412,-19.64826 19.64827,-6.3841 -12.76822,-39.29657 -19.64826,6.38413 6.38412,19.64826 -39.29657,12.76822 -6.38409,-19.64826 19.64827,-6.38412 -6.38412,-19.64827 -19.64827,6.38411 -6.38412,-19.64826 39.29655,-12.76824 6.3841,19.64829 19.64829,-6.38412 -6.38411,-19.64827 39.29653,-12.76822 6.38412,19.64828 -19.64826,6.38408 12.76821,39.29657 19.64826,-6.38413 -6.38408,-19.64826 19.64826,-6.38412 6.3841,19.64829 19.64829,-6.38412 -12.76822,-39.29654 -19.64829,6.3841 -6.3841,-19.64826 39.29654,-12.76823 6.38412,19.64827 19.64827,-6.38411 -6.38413,-19.64827 39.29657,-12.76822 6.3841,19.64826 -19.64828,6.38413 6.38413,19.64826 19.64826,-6.38411 6.38413,19.64829 -39.29657,12.76821 -6.38409,-19.64826 -19.6483,6.3841 19.15235,58.94483 19.64826,-6.38413 -6.3841,-19.64826 39.29654,-12.76823 6.38412,19.64827 -19.64827,6.38412 6.3841,19.64827 19.64826,-6.38412 6.38413,19.64827 -39.29654,12.76824 -6.38411,-19.6483 -19.64828,6.38413 6.3841,19.64826 -39.29653,12.76823 -6.38412,-19.64828 19.64826,-6.3841 -12.76821,-39.29655 -19.64828,6.38412 6.38413,19.64827 -19.64829,6.38412 -6.3841,-19.6483 -19.64826,6.38412 12.76821,39.29654 19.64827,-6.38409 6.38411,19.64826 -19.64829,6.38413 6.38413,19.64826 19.64826,-6.38411 6.38413,19.64826 -19.64828,6.38411 12.76823,39.29657 19.64826,-6.38413 -6.38411,-19.64826 19.64829,-6.38412 6.38408,19.64827 19.64828,-6.3841 -12.76822,-39.29656 -19.64827,6.38412 -6.38412,-19.64826 39.29656,-12.76825 6.3841,19.6483 19.64829,-6.38412 -6.38412,-19.64827 39.29657,-12.76822 6.38408,19.64826 -19.64826,6.38413 6.38412,19.64826 19.64827,-6.38411 6.38409,19.64826 -39.29654,12.76824 -6.38411,-19.64829 -19.64828,6.38412 19.15234,58.94484 19.64828,-6.38413 -6.38413,-19.64826 39.29656,-12.76823 6.38412,19.64827 -19.64829,6.38409 6.38413,19.6483 19.64826,-6.38412 6.38413,19.64827 -39.29657,12.76821 -6.3841,-19.64827 -19.64829,6.38413 6.38412,19.64826 -39.29654,12.76823 -6.38411,-19.64828 19.64827,-6.38411 -12.76823,-39.29654 -19.64826,6.38412 6.3841,19.64827 -19.64827,6.38409 -6.3841,-19.64826 -19.64829,6.38411 12.76824,39.29654 19.64826,-6.38409 6.3841,19.64826 -39.29652,12.76822 -6.38413,-19.64827 -19.64826,6.38409 6.38411,19.6483 -39.29656,12.76822 -6.38409,-19.64826 19.64826,-6.38413 -6.38411,-19.64826 -19.64828,6.38408 -6.38408,-19.64826 39.29652,-12.76821 6.38413,19.64826 19.64826,-6.3841 -12.76821,-39.29655 -19.6483,6.38411 -6.38409,-19.64829 19.64827,-6.3841 -12.76823,-39.29655 -19.64826,6.38412 6.3841,19.64827 -19.64827,6.38412 -6.38412,-19.64828 -19.64827,6.3841 12.76822,39.29657 19.64829,-6.38412 6.38409,19.64826 -58.9448,19.15233 -6.38411,-19.64826 19.64826,-6.38412 -12.76822,-39.29653 -19.64827,6.3841 6.3841,19.64829 -19.64826,6.3841 -6.3841,-19.64828 -19.64829,6.38412 12.76824,39.29655 19.64826,-6.38413 6.3841,19.64829 -19.64826,6.3841 12.76821,39.29655 19.6483,-6.38411 -6.38413,-19.64828 39.29653,-12.76821 6.38413,19.64827 -19.64827,6.38412 6.3841,19.64827 19.64829,-6.38413 6.3841,19.64828 -39.29654,12.76824 -6.38412,-19.6483 -19.64827,6.38413 19.15234,58.94482 19.64826,-6.38411 -6.38411,-19.64828 39.29655,-12.76821 6.3841,19.64826 -19.64826,6.3841 6.38411,19.64829 19.64828,-6.38412 6.38411,19.64827 -39.29655,12.76821 -6.3841,-19.64826 -19.64829,6.38412 12.76821,39.29653 19.6483,-6.3841 6.38409,19.64828 -19.64827,6.38409 12.76823,39.29656 19.64826,-6.38412 -6.3841,-19.64827 19.64826,-6.38412 6.38413,19.64829 19.64826,-6.38411 -12.76821,-39.29654 -19.64826,6.38409 -6.38413,-19.64826 58.94484,-19.15233 6.38408,19.64826 -19.64826,6.38412 12.76822,39.29653 19.64826,-6.3841 -6.38409,-19.64826 19.64826,-6.38413 6.38413,19.64828 19.64826,-6.3841 -12.76821,-39.29657 -19.64829,6.38413 -6.3841,-19.64826 19.64826,-6.38413 -12.76821,-39.29653 -19.64827,6.38409 6.38409,19.64828 -39.29652,12.76823 -6.38413,-19.64829 19.64826,-6.3841 -6.38409,-19.64826 -19.64827,6.38409 -6.38411,-19.64827 39.29653,-12.76821 6.38412,19.64827 19.64827,-6.38413 -6.3841,-19.64826 39.29654,-12.76821 6.38412,19.64826 -19.6483,6.38413 12.76825,39.29652 19.64826,-6.3841 -6.38412,-19.64829 19.64828,-6.3841 6.38411,19.64828 19.64828,-6.38412 -12.76823,-39.29654 -19.64826,6.38412 -6.38413,-19.64829 39.29657,-12.76822 6.38409,19.64827 19.64827,-6.38409 -6.3841,-19.64827 39.29653,-12.76825 6.38413,19.64829 -19.64827,6.3841 6.3841,19.64828 19.64826,-6.3841 6.38413,19.64826 -39.29654,12.76821 -6.38413,-19.64826 -19.64826,6.38412 19.15234,58.94481 19.64826,-6.3841 -6.38411,-19.64829 39.29655,-12.76822 6.3841,19.64827 -19.64826,6.38411 6.38411,19.64828 19.64828,-6.3841 6.38409,19.64827 -39.29654,12.76822 -6.38412,-19.64828 -19.64826,6.3841 6.38412,19.64829 -39.29657,12.76823 -6.3841,-19.64828 19.64828,-6.38411 -12.76822,-39.29654 -19.64827,6.3841 6.3841,19.64826 -19.64827,6.38412 -6.38412,-19.64826 -19.64827,6.38409 12.76822,39.29656 19.64829,-6.38412 6.3841,19.64826 -19.64826,6.38413 6.38411,19.64826 19.64827,-6.38408 6.38409,19.64826 -19.64826,6.3841 12.76822,39.29655 19.64829,-6.38412 -6.38412,-19.64827 19.64826,-6.3841 6.38412,19.64828 19.64827,-6.38412 -12.76821,-39.29654 -19.64827,6.38409 -6.38412,-19.64826 39.29653,-12.76822 6.38412,19.64827 19.64826,-6.38409 -6.38408,-19.6483 39.29653,-12.76822 6.38412,19.64828 -19.64829,6.38411 6.38411,19.64828 19.64828,-6.3841 6.38411,19.64826 -39.29655,12.76823 -6.3841,-19.64828 -19.64826,6.3841 19.15231,58.94483 19.64829,-6.38413 -6.38412,-19.64826 39.29653,-12.76822 6.38413,19.64827 -19.64827,6.38411 6.38409,19.64828 19.6483,-6.38412 6.38409,19.64829 -39.29653,12.76822 -6.38413,-19.64828 -19.64826,6.3841 6.38411,19.64827 -39.29655,12.7683 -6.3841,-19.64834 19.64826,-6.3841 -12.76821,-39.29657 -19.64829,6.38413 6.38413,19.64826 -19.64828,6.38412 -6.38411,-19.64826 -19.64828,6.38409 12.76823,39.29656 19.64826,-6.38412 6.38413,19.6483 -39.29655,12.76814 -6.38412,-19.6482 -19.64826,6.38407 6.38409,19.64834 -39.29654,12.76814 -6.38411,-19.6482 19.64829,-6.38421 -6.38412,-19.64821 -19.64827,6.38412 -6.38412,-19.64827 39.29657,-12.76824 6.38408,19.64829 19.64828,-6.38413 -12.76823,-39.29652 -19.64826,6.3841 -6.38413,-19.64828 19.64831,-6.38411 -12.76825,-39.29654 -19.64827,6.38409 6.38413,19.6483 -19.64828,6.38409 -6.38411,-19.64826 -19.64828,6.38411 12.76823,39.29654 19.64826,-6.38412 6.38413,19.64829 -58.94484,19.15232 -6.38412,-19.64828 19.64829,-6.3841 -12.76821,-39.29655 -19.64829,6.38413 6.38412,19.64826 -19.64827,6.38413 -6.38411,-19.6483 -19.64828,6.38412 12.76822,39.29654 19.64827,-6.3841 6.38412,19.64826 -19.64828,6.38413 12.76823,39.29647 19.64826,-6.38407 -6.38412,-19.64825 39.29656,-12.76822 6.3841,19.64833 -19.64828,6.38407 6.38413,19.64821 19.64826,-6.38407 6.38413,19.64834 -39.29655,12.76814 -6.3841,-19.64821 -19.64829,6.38408 6.38411,19.6482 -39.29653,12.76828 -6.38412,-19.64821 19.64826,-6.3842 -12.76821,-39.29656 -19.64826,6.38421 6.38408,19.64821 -19.64826,6.38407 -6.3841,-19.64821 -19.64829,6.38407 12.76825,39.29656 19.64826,-6.38407 6.3841,19.6482 -39.29654,12.76828 -6.38413,-19.64834 -19.64826,6.3842 6.38413,19.64821 -39.29657,12.76824 -6.38409,-19.6483 19.64827,-6.38407 -6.38413,-19.64835 -19.64826,6.38421 -6.3841,-19.64835 39.29654,-12.76814 6.38411,19.64821 19.64828,-6.38407 -19.15235,-58.94485 -19.64826,6.38416 6.38409,19.64821 -39.29654,12.76827 -6.38411,-19.64834 19.64829,-6.38407 -6.38412,-19.64827 -19.64827,6.38412 -6.38412,-19.64827 39.29657,-12.76822 6.38408,19.64828 19.64828,-6.38413 -6.3841,-19.64826 39.29654,-12.76823 6.38411,19.64828 -19.64826,6.38411 12.76821,39.29658 19.64828,-6.3842 -6.38413,-19.64823 19.64829,-6.3841 6.3841,19.64827 19.64826,-6.38411 -12.76821,-39.29654 -19.64827,6.38409 -6.38412,-19.64826 19.64829,-6.3841 -12.76823,-39.29657 -19.64828,6.38413 6.38413,19.64826 -39.29656,12.76823 -6.3841,-19.64827 19.64827,-6.38412 -6.38413,-19.64827 -19.64826,6.38412 -6.3841,-19.64827 39.29654,-12.76823 6.38413,19.64829 19.64826,-6.38413 -12.76823,-39.29653 -19.64829,6.38409 -6.38409,-19.64826 19.64827,-6.38413 -12.76822,-39.29653 -19.64826,6.38411 6.38409,19.64828 -19.64827,6.3841 -6.38412,-19.64828 -19.64827,6.38413 12.76822,39.29654 19.64829,-6.3841 6.3841,19.64826 -58.9448,19.15234 -6.38413,-19.64829 19.64828,-6.3841 -12.76823,-39.29655 -19.64826,6.38411 6.3841,19.64828 -19.64828,6.38411 -6.38408,-19.64827 -19.64831,6.3841 12.76825,39.29656 19.64827,-6.38411 6.3841,19.64826 -19.64827,6.38412 12.76821,39.29653 19.64829,-6.3841 -6.38411,-19.64829 39.29653,-12.76821 6.38412,19.64827 -19.64826,6.38412 6.38408,19.64826 19.6483,-6.38409 6.38409,19.64827 -39.29652,12.76821 -6.38413,-19.64826 -19.64826,6.3841 6.38411,19.64829 -19.64829,6.38408 -6.3841,-19.64826 -19.64826,6.38413 6.3841,19.64826 -39.29654,12.76822 -6.38412,-19.64827 19.64827,-6.38412 -6.3841,-19.64827 -19.64828,6.38412 -6.38411,-19.64829 39.29654,-12.76822 6.38411,19.64828 19.64828,-6.3841 -12.76823,-39.29657 -19.64826,6.38412 -6.38412,-19.64826 19.64827,-6.38412 -12.76822,-39.29653 -19.64826,6.38408 6.38412,19.64831 -19.64829,6.38408 -6.38411,-19.64826 -19.64828,6.3841 12.76823,39.29655 19.64827,-6.38411 6.38413,19.64829 -58.94483,19.15231 -6.38412,-19.64826 19.64828,-6.3841 -12.76822,-39.29656 -19.64828,6.38411 6.38411,19.64828 -19.64827,6.38409 -6.38412,-19.64827 -19.64826,6.38413 12.76822,39.29653 19.64827,-6.3841 6.38411,19.64827 -19.64828,6.3841 12.76823,39.29656 19.64827,-6.38413 -6.38411,-19.64826 39.29654,-12.76821 6.38411,19.64826 -19.64826,6.38413 6.38411,19.64826 19.64827,-6.38413 6.38411,19.6483 -39.29654,12.76821 -6.38411,-19.64827 -19.64828,6.3841 12.76822,39.29658 19.64828,-6.38407 6.38411,19.64821 -19.64828,6.38407 12.76823,39.29656 19.64828,-6.38408 -6.38412,-19.64834 19.64827,-6.38407 6.38411,19.64834 19.64828,-6.3842 -12.76821,-39.29656 -19.6483,6.38421 -6.38411,-19.64835 39.29654,-12.76814 6.38413,19.64821 19.64826,-6.38407 -6.3841,-19.64829 39.29654,-12.76824 6.38413,19.64825 -19.6483,6.38407 6.38412,19.64835 19.64827,-6.38407 6.38412,19.64821 -39.29655,12.76827 -6.3841,-19.64834 -19.64829,6.38421 19.15233,58.94476 19.64827,-6.38407 -6.3841,-19.64835 39.29654,-12.76814 6.38412,19.64821 -19.64827,6.38407 6.3841,19.64835 19.64829,-6.38408 6.3841,19.64822 -39.29655,12.7683 -6.38411,-19.64842 -19.64827,6.38412 6.38409,19.6484 -39.29652,12.7682 -6.38413,-19.6483 19.64829,-6.3841 -12.76824,-39.29655 -19.64826,6.38407 6.38411,19.64826 -19.64827,6.38422 -6.38412,-19.64841 -19.64826,6.38421 12.76821,39.2966 19.64828,-6.3842 6.38411,19.6483 -19.64828,6.3841"
         style="display:inline;fill:none;fill-opacity:1;stroke:#ff0000;stroke-width:10.3297;stroke-linecap:round;stroke-linejoin:round;stroke-miterlimit:4;stroke-dasharray:none;stroke-opacity:1" />
    </mask>
    <linearGradient
       inkscape:collect="always"
       xlink:href="#linearGradient42144"
       id="linearGradient42146"
       x1="1248.7748"
       y1="364.89316"
       x2="936.48907"
       y2="-248.23926"
       gradientUnits="userSpaceOnUse" />
  </defs>
  <sodipodi:namedview
     pagecolor="#ffffff"
     bordercolor="#666666"
     borderopacity="1"
     objecttolerance="10"
     gridtolerance="10"
     guidetolerance="10"
     inkscape:pageopacity="0"
     inkscape:pageshadow="2"
     inkscape:window-width="1566"
     inkscape:window-height="944"
     id="namedview10"
     showgrid="false"
     inkscape:zoom="0.61565447"
     inkscape:cx="-34.922186"
     inkscape:cy="-99.893695"
     inkscape:window-x="69"
     inkscape:window-y="0"
     inkscape:window-maximized="0"
     inkscape:current-layer="layer15"
     showguides="false"
     fit-margin-left="32"
     fit-margin-bottom="32"
     fit-margin-right="32"
     fit-margin-top="28"
     inkscape:showpageshadow="true"
     inkscape:pagecheckerboard="1"
     inkscape:deskcolor="#d1d1d1" />
  <g
     inkscape:groupmode="layer"
     id="layer1"
     inkscape:label="BG"
     sodipodi:insensitive="true">
    <rect
       style="fill:#18181b;fill-opacity:1;stroke:none;stroke-width:4;stroke-linecap:square;stroke-linejoin:round;stroke-dasharray:none;stroke-opacity:1"
       id="rect41934"
       width="1200"
       height="400"
       x="0"
       y="-21.342501"
       ry="24"
       transform="translate(0,21.3425)" />
    <rect
       style="fill:url(#linearGradient42146);fill-opacity:1;stroke-width:5.7478;stroke-linecap:square;stroke-linejoin:round;stroke-dasharray:none;stroke-opacity:0.203002"
       id="rect2950"
       width="1200"
       height="400"
       x="0"
       y="-21.342501"
       ry="24"
       mask="url(#mask41830)"
       transform="translate(0,21.3425)"
       inkscape:label="rect2950" />
  </g>
  <g
     inkscape:groupmode="layer"
     id="layer15"
     inkscape:label="P6"
     transform="translate(0,21.3425)">
    <text
       xml:space="preserve"
       style="font-weight:800;font-size:40px;line-height:0;font-family:Karla;-inkscape-font-specification:'Karla Ultra-Bold';fill:#ffffff;fill-opacity:0.945164"
       x="98.704002"
       y="106.2175"
       id="text411"><tspan
         sodipodi:role="line"
         id="tspan409"
         x="98.704002"
         y="106.2175"
         style="font-style:normal;font-variant:normal;font-weight:normal;font-stretch:normal;line-height:1.25;font-family:Karla;-inkscape-font-specification:Karla;fill:#ffffff;fill-opacity:0.945164"
         dx="0 -1 0 0 0 0 -1">Hi,  I'm</tspan><tspan
         sodipodi:role="line"
         x="98.704002"
         y="167.31929"
         id="tspan1066"
         style="font-size:72px;line-height:0.75;fill:#ffffff;fill-opacity:0.945164"
         dx="0 -1 3 -1 -3">Aryan</tspan></text>
    <path
       sodipodi:type="star"
       style="fill:#ffffff;fill-opacity:0.8;stroke-width:4;stroke-linecap:square;stroke-linejoin:round"
       id="path8293"
       inkscape:flatsided="false"
       sodipodi:sides="4"
       sodipodi:cx="362.64609"
       sodipodi:cy="89.933952"
       sodipodi:r1="16.524805"
       sodipodi:r2="9.5331669"
       sodipodi:arg1="-0.98125321"
       sodipodi:arg2="-0.19585505"
       inkscape:rounded="0.2"
       inkscape:randomized="0"
       d="m 371.83357,76.198621 c 1.97513,1.32115 -0.299,9.549306 0.16343,11.880126 0.46243,2.330821 5.70557,9.067562 4.38442,11.042688 -1.32115,1.975125 -9.54931,-0.299005 -11.88013,0.163426 -2.33082,0.462431 -9.06756,5.705569 -11.04269,4.384419 -1.97512,-1.32115 0.29901,-9.549303 -0.16342,-11.880123 -0.46243,-2.33082 -5.70557,-9.067561 -4.38442,-11.042688 1.32115,-1.975126 9.5493,0.299006 11.88012,-0.163425 2.33082,-0.462431 9.06756,-5.705574 11.04269,-4.384423 z"
       transform="translate(20,-40)" />
    <path
       sodipodi:type="star"
       style="fill:#ffffff;fill-opacity:0.8;stroke-width:4;stroke-linecap:square;stroke-linejoin:round"
       id="path8303"
       inkscape:flatsided="false"
       sodipodi:sides="4"
       sodipodi:cx="338.4437"
       sodipodi:cy="99.252205"
       sodipodi:r1="12.408102"
       sodipodi:r2="7.1582389"
       sodipodi:arg1="1.2448404"
       sodipodi:arg2="2.0302385"
       inkscape:rounded="0.2"
       inkscape:randomized="0"
       d="m 342.41695,111.00696 c -1.69032,0.57135 -5.54832,-4.54759 -7.14756,-5.33883 -1.59925,-0.79123 -8.0091,-0.75235 -8.58045,-2.44267 -0.57135,-1.69032 4.54759,-5.54832 5.33883,-7.147563 0.79123,-1.599244 0.75235,-8.009096 2.44267,-8.580446 1.69032,-0.57135 5.54832,4.547592 7.14756,5.338824 1.59925,0.791233 8.0091,0.752354 8.58045,2.442675 0.57135,1.690322 -4.54759,5.54832 -5.33883,7.14756 -0.79123,1.59925 -0.75235,8.0091 -2.44267,8.58045 z"
       transform="translate(20,-40)" />
    <path
       sodipodi:type="star"
       style="fill:#ffffff;fill-opacity:0.8;stroke-width:4;stroke-linecap:square;stroke-linejoin:round"
       id="path8305"
       inkscape:flatsided="false"
       sodipodi:sides="4"
       sodipodi:cx="362.23178"
       sodipodi:cy="110.93698"
       sodipodi:r1="8.0411005"
       sodipodi:r2="4.6389141"
       sodipodi:arg1="-1.255756"
       sodipodi:arg2="-0.47035781"
       inkscape:rounded="0.2"
       inkscape:randomized="0"
       d="m 364.72335,103.29163 c 1.0994,0.35829 1.11955,4.51224 1.64359,5.54297 0.52404,1.03074 3.86848,3.49456 3.51019,4.59395 -0.35829,1.0994 -4.51223,1.11955 -5.54297,1.64359 -1.03073,0.52404 -3.49456,3.86848 -4.59395,3.51019 -1.0994,-0.35829 -1.11954,-4.51223 -1.64359,-5.54297 -0.52404,-1.03073 -3.86847,-3.49456 -3.51019,-4.59395 0.35829,-1.0994 4.51224,-1.11954 5.54297,-1.64359 1.03074,-0.52404 3.49456,-3.86847 4.59395,-3.51019 z"
       transform="translate(20,-40)" />
  </g>
</svg>
